<svg width="21" height="21" viewBox="0 0 21 21" fill="none" xmlns="http://www.w3.org/2000/svg">
<path fill-rule="evenodd" clip-rule="evenodd" d="M21.0007 1.31184C21.0006 1.0882 20.9433 0.868291 20.8343 0.672991C20.7254 0.477691 20.5683 0.313475 20.378 0.195926C20.1878 0.0783763 19.9706 0.0113921 19.7472 0.00132945C19.5238 -0.00873321 19.3015 0.0384593 19.1014 0.138429L8.87673 5.24948H3.93763C2.89331 5.24948 1.89175 5.66433 1.15331 6.40278C0.414857 7.14123 0 8.14278 0 9.18711C0 10.2314 0.414857 11.233 1.15331 11.9714C1.89175 12.7099 2.89331 13.1247 3.93763 13.1247H4.30514L6.62966 20.1022C6.71674 20.3637 6.88392 20.5911 7.10749 20.7522C7.33106 20.9134 7.59968 21.0001 7.87526 21H9.18781C9.53592 21 9.86977 20.8617 10.1159 20.6156C10.3621 20.3694 10.5004 20.0356 10.5004 19.6875V13.9359L19.1014 18.2358C19.3015 18.3358 19.5238 18.3829 19.7472 18.3729C19.9706 18.3628 20.1878 18.2958 20.378 18.1783C20.5683 18.0607 20.7254 17.8965 20.8343 17.7012C20.9433 17.5059 21.0006 17.286 21.0007 17.0624V1.31184Z" fill="#1C1C1C"/>
</svg>
