<svg width="34" height="35" viewBox="0 0 34 35" fill="none" xmlns="http://www.w3.org/2000/svg">
<path d="M10.9792 3.95605C10.9792 3.67426 10.8672 3.40401 10.668 3.20475C10.4687 3.0055 10.1985 2.89355 9.91667 2.89355C9.63488 2.89355 9.36462 3.0055 9.16537 3.20475C8.96611 3.40401 8.85417 3.67426 8.85417 3.95605V6.19439C6.81417 6.3573 5.47683 6.7568 4.49367 7.74139C3.50908 8.72455 3.10958 10.0633 2.94525 12.1019H31.0547C30.8904 10.0619 30.4909 8.72455 29.5063 7.74139C28.5232 6.7568 27.1844 6.3573 25.1458 6.19297V3.95605C25.1458 3.67426 25.0339 3.40401 24.8346 3.20475C24.6354 3.0055 24.3651 2.89355 24.0833 2.89355C23.8015 2.89355 23.5313 3.0055 23.332 3.20475C23.1328 3.40401 23.0208 3.67426 23.0208 3.95605V6.09947C22.0788 6.08105 21.0219 6.08105 19.8333 6.08105H14.1667C12.9781 6.08105 11.9213 6.08105 10.9792 6.09947V3.95605Z" fill="#1C1C1C"/>
<path fill-rule="evenodd" clip-rule="evenodd" d="M2.83331 17.4143C2.83331 16.2257 2.83331 15.1689 2.85173 14.2268H31.1482C31.1666 15.1689 31.1666 16.2257 31.1666 17.4143V20.2476C31.1666 25.5899 31.1666 28.2617 29.5063 29.9206C27.8474 31.581 25.1756 31.581 19.8333 31.581H14.1666C8.8244 31.581 6.15256 31.581 4.49365 29.9206C2.83331 28.2617 2.83331 25.5899 2.83331 20.2476V17.4143ZM24.0833 20.2476C24.459 20.2476 24.8194 20.0984 25.0851 19.8327C25.3507 19.567 25.5 19.2067 25.5 18.831C25.5 18.4553 25.3507 18.0949 25.0851 17.8292C24.8194 17.5636 24.459 17.4143 24.0833 17.4143C23.7076 17.4143 23.3473 17.5636 23.0816 17.8292C22.8159 18.0949 22.6666 18.4553 22.6666 18.831C22.6666 19.2067 22.8159 19.567 23.0816 19.8327C23.3473 20.0984 23.7076 20.2476 24.0833 20.2476ZM24.0833 25.9143C24.459 25.9143 24.8194 25.7651 25.0851 25.4994C25.3507 25.2337 25.5 24.8734 25.5 24.4976C25.5 24.1219 25.3507 23.7616 25.0851 23.4959C24.8194 23.2302 24.459 23.081 24.0833 23.081C23.7076 23.081 23.3473 23.2302 23.0816 23.4959C22.8159 23.7616 22.6666 24.1219 22.6666 24.4976C22.6666 24.8734 22.8159 25.2337 23.0816 25.4994C23.3473 25.7651 23.7076 25.9143 24.0833 25.9143ZM18.4166 18.831C18.4166 19.2067 18.2674 19.567 18.0017 19.8327C17.736 20.0984 17.3757 20.2476 17 20.2476C16.6243 20.2476 16.2639 20.0984 15.9982 19.8327C15.7326 19.567 15.5833 19.2067 15.5833 18.831C15.5833 18.4553 15.7326 18.0949 15.9982 17.8292C16.2639 17.5636 16.6243 17.4143 17 17.4143C17.3757 17.4143 17.736 17.5636 18.0017 17.8292C18.2674 18.0949 18.4166 18.4553 18.4166 18.831ZM18.4166 24.4976C18.4166 24.8734 18.2674 25.2337 18.0017 25.4994C17.736 25.7651 17.3757 25.9143 17 25.9143C16.6243 25.9143 16.2639 25.7651 15.9982 25.4994C15.7326 25.2337 15.5833 24.8734 15.5833 24.4976C15.5833 24.1219 15.7326 23.7616 15.9982 23.4959C16.2639 23.2302 16.6243 23.081 17 23.081C17.3757 23.081 17.736 23.2302 18.0017 23.4959C18.2674 23.7616 18.4166 24.1219 18.4166 24.4976ZM9.91665 20.2476C10.2924 20.2476 10.6527 20.0984 10.9184 19.8327C11.1841 19.567 11.3333 19.2067 11.3333 18.831C11.3333 18.4553 11.1841 18.0949 10.9184 17.8292C10.6527 17.5636 10.2924 17.4143 9.91665 17.4143C9.54092 17.4143 9.18059 17.5636 8.91491 17.8292C8.64924 18.0949 8.49998 18.4553 8.49998 18.831C8.49998 19.2067 8.64924 19.567 8.91491 19.8327C9.18059 20.0984 9.54092 20.2476 9.91665 20.2476ZM9.91665 25.9143C10.2924 25.9143 10.6527 25.7651 10.9184 25.4994C11.1841 25.2337 11.3333 24.8734 11.3333 24.4976C11.3333 24.1219 11.1841 23.7616 10.9184 23.4959C10.6527 23.2302 10.2924 23.081 9.91665 23.081C9.54092 23.081 9.18059 23.2302 8.91491 23.4959C8.64924 23.7616 8.49998 24.1219 8.49998 24.4976C8.49998 24.8734 8.64924 25.2337 8.91491 25.4994C9.18059 25.7651 9.54092 25.9143 9.91665 25.9143Z" fill="#1C1C1C"/>
</svg>
