<svg xmlns="http://www.w3.org/2000/svg" fill="none" viewBox="0 0 40 40">
  <rect width="39" height="39" x=".5" y=".5" fill="red" rx="10.5" />
  <rect width="39" height="39" x=".5" y=".5" stroke="red" rx="10.5" />
  <path fill="#F6F6F6"
    d="M28.25 12.5H24.5v-.75a2.25 2.25 0 0 0-2.25-2.25h-4.5a2.25 2.25 0 0 0-2.25 2.25v.75h-3.75a.75.75 0 1 0 0 1.5h.75v13.5A1.5 1.5 0 0 0 14 29h12a1.5 1.5 0 0 0 1.5-1.5V14h.75a.75.75 0 1 0 0-1.5ZM18.5 23.75a.75.75 0 1 1-1.5 0v-6a.75.75 0 1 1 1.5 0v6Zm4.5 0a.75.75 0 1 1-1.5 0v-6a.75.75 0 1 1 1.5 0v6Zm0-11.25h-6v-.75a.75.75 0 0 1 .75-.75h4.5a.75.75 0 0 1 .75.75v.75Z" />
</svg>