<svg xmlns="http://www.w3.org/2000/svg" fill="none" viewBox="0 0 40 40">
  <path fill="#0038FF"
    d="m19.22 28.008 9.615-9.614a13.374 13.374 0 0 1-4.323-2.904 13.375 13.375 0 0 1-2.906-4.325l-9.614 9.614c-.75.75-1.126 1.126-1.448 1.54a8.52 8.52 0 0 0-.974 1.573c-.225.474-.393.978-.728 1.984l-1.77 5.308a1.378 1.378 0 0 0 1.744 1.744l5.308-1.77c1.007-.335 1.51-.503 1.984-.728a8.494 8.494 0 0 0 1.574-.974c.413-.322.789-.698 1.539-1.448Zm12.283-12.282a5.112 5.112 0 0 0-7.23-7.229L23.122 9.65l.05.145a11.38 11.38 0 0 0 2.719 4.315 11.381 11.381 0 0 0 4.46 2.77l1.153-1.154Z" />
</svg>