<svg xmlns="http://www.w3.org/2000/svg" fill="none" viewBox="0 0 26 26">
  <mask id="a" fill="#fff">
    <path fill-rule="evenodd"
      d="M15.584 16.733a7.313 7.313 0 1 1 1.148-1.148l5.586 5.585a.813.813 0 1 1-1.149 1.148l-5.585-5.585Zm-8.586-1.692a5.688 5.688 0 1 1 8.05-.005l-.006.005-.005.005a5.687 5.687 0 0 1-8.039-.005Z"
      clip-rule="evenodd" />
  </mask>
  <path fill="#464646"
    d="m15.584 16.733 2.828-2.828-2.53-2.53-2.795 2.233 2.497 3.125Zm1.148-1.148-3.125-2.497-2.234 2.796 2.53 2.53 2.83-2.829Zm5.586 5.585-2.828 2.828.05.05.05.048 2.728-2.926Zm-1.149 1.148 2.927-2.727-.048-.052-.05-.05-2.829 2.829ZM7 15.04l-2.83 2.828h.001l2.828-2.828Zm8.049-.005 2.828 2.828.004-.004-2.832-2.824Zm-.006.005 2.499 3.124.173-.139.157-.156-2.829-2.829Zm-.005.005-2.499-3.124-.171.137-.156.155 2.826 2.832Zm-1.95-1.438c-.662.529-1.5.784-2.345.714l-.667 7.972c2.882.24 5.747-.63 8.006-2.436l-4.994-6.25Zm-2.345.714a3.314 3.314 0 0 1-2.193-1.093l-5.963 5.333a11.314 11.314 0 0 0 7.49 3.732l.666-7.972ZM8.55 13.229a3.313 3.313 0 0 1-.843-2.301l-7.997-.223c-.08 2.89.95 5.702 2.877 7.857L8.55 13.23Zm-.843-2.301c.024-.847.37-1.653.97-2.251L3.018 3.02a11.314 11.314 0 0 0-3.31 7.685l7.997.223Zm.97-2.251a3.314 3.314 0 0 1 2.25-.97L10.704-.29c-2.89.08-5.64 1.265-7.685 3.31l5.656 5.657Zm2.25-.97a3.314 3.314 0 0 1 2.302.843l5.333-5.963A11.314 11.314 0 0 0 10.704-.29l.222 7.997Zm2.302.843a3.314 3.314 0 0 1 1.092 2.193l7.973-.666a11.314 11.314 0 0 0-3.732-7.49L13.228 8.55Zm1.092 2.193a3.314 3.314 0 0 1-.713 2.345l6.25 4.994a11.314 11.314 0 0 0 2.436-8.005l-7.973.666Zm-.416 7.67 5.586 5.585 5.656-5.657-5.586-5.585-5.656 5.658Zm5.687 5.683a3.187 3.187 0 0 1-.739-1.035l7.308-3.256a4.813 4.813 0 0 0-1.115-1.562l-5.454 5.853Zm-.739-1.035a3.187 3.187 0 0 1-.275-1.24l7.999-.142a4.811 4.811 0 0 0-.416-1.874l-7.308 3.256Zm-.275-1.24a3.187 3.187 0 0 1 .231-1.25l7.418 2.995c.242-.599.361-1.24.35-1.887l-8 .141Zm.231-1.25c.16-.398.4-.758.702-1.06l5.657 5.656a4.813 4.813 0 0 0 1.06-1.6l-7.419-2.997Zm.702-1.06a3.187 3.187 0 0 1 1.06-.703l2.996 7.418a4.812 4.812 0 0 0 1.6-1.059L19.51 19.51Zm1.06-.703c.397-.16.822-.239 1.25-.231l-.141 7.999a4.811 4.811 0 0 0 1.887-.35l-2.996-7.418Zm1.25-.231c.428.008.85.101 1.241.275l-3.256 7.308c.59.263 1.228.404 1.874.416l.141-7.999Zm1.241.275c.391.175.743.426 1.035.739l-5.853 5.454c.44.473.972.852 1.562 1.115l3.256-7.308Zm.937.637-5.586-5.584-5.656 5.657 5.585 5.585 5.657-5.658ZM9.827 12.213a1.688 1.688 0 0 1-.462-.864L1.52 12.911a9.687 9.687 0 0 0 2.65 4.958l5.658-5.656Zm-.462-.864a1.687 1.687 0 0 1 .096-.975L2.069 7.315a9.688 9.688 0 0 0-.55 5.596l7.846-1.562Zm.096-.975c.128-.308.344-.571.621-.757l-4.448-6.65A9.688 9.688 0 0 0 2.07 7.315l7.392 3.06Zm.621-.757c.277-.185.603-.285.937-.285l-.005-8a9.687 9.687 0 0 0-5.38 1.635l4.448 6.65Zm.937-.285c.334 0 .66.099.938.284l4.438-6.656a9.687 9.687 0 0 0-5.381-1.628l.005 8Zm.938.284c.277.185.494.448.622.756l7.387-3.069a9.688 9.688 0 0 0-3.57-4.343l-4.44 6.656Zm.622.756c.128.308.161.648.097.975l7.848 1.551a9.688 9.688 0 0 0-.558-5.595l-7.387 3.07Zm.097.975a1.688 1.688 0 0 1-.46.864l5.664 5.65a9.688 9.688 0 0 0 2.644-4.963l-7.848-1.551Zm-.457.86-.005.006 5.656 5.657.006-.006-5.657-5.657Zm.325-.29-.006.005 4.997 6.247.006-.004-4.998-6.247Zm-.333.297a1.687 1.687 0 0 1-1.192.493l-.005 8a9.687 9.687 0 0 0 6.848-2.83l-5.65-5.663Zm-1.192.493c-.447 0-.876-.178-1.192-.495L4.17 17.87a9.687 9.687 0 0 0 6.845 2.837l.004-8Z"
    mask="url(#a)" />
</svg>