<svg width="21" height="21" viewBox="0 0 21 21" fill="none" xmlns="http://www.w3.org/2000/svg">
<path d="M10.5 16.9167C12.2827 16.9167 13.7978 16.2929 15.0453 15.0453C16.2929 13.7978 16.9167 12.2827 16.9167 10.5C16.9167 8.82467 16.3594 7.37411 15.2448 6.14833C14.1303 4.92256 12.7431 4.24861 11.0833 4.1265V10.7333L6.39333 15.4117C6.98444 15.8892 7.62844 16.2594 8.32533 16.5223C9.02222 16.7852 9.74711 16.9167 10.5 16.9167ZM10.5035 21C9.05216 21 7.68716 20.7247 6.4085 20.174C5.13061 19.6226 4.01878 18.8743 3.073 17.9293C2.12722 16.9843 1.37861 15.8737 0.827166 14.5973C0.275722 13.321 0 11.9564 0 10.5035C0 9.05061 0.275333 7.68561 0.826 6.4085C1.37667 5.13139 2.12489 4.01956 3.07067 3.073C4.01644 2.12645 5.12711 1.37783 6.40266 0.827168C7.67822 0.276502 9.04283 0.000779421 10.4965 1.64319e-06C11.9502 -0.000776134 13.3152 0.274557 14.5915 0.826001C15.8678 1.37745 16.9797 2.12567 17.927 3.07067C18.8743 4.01567 19.6229 5.12633 20.1728 6.40267C20.7227 7.679 20.9984 9.04361 21 10.4965C21.0015 11.9494 20.7262 13.3144 20.174 14.5915C19.6218 15.8686 18.8735 16.9804 17.9293 17.927C16.9851 18.8736 15.8744 19.6222 14.5973 20.1728C13.3202 20.7235 11.9556 20.9992 10.5035 21Z" fill="#555555"/>
</svg>
