<svg xmlns="http://www.w3.org/2000/svg" fill="none" viewBox="0 0 200 200">
  <path fill="#0038FF"
    d="m195.833 141.667-41.666 41.666L125 154.167l12.5-12.5 16.667 16.666 29.166-29.166 12.5 12.5ZM100 75a25.003 25.003 0 0 1 25 25c0 6.63-2.634 12.989-7.322 17.678a25.004 25.004 0 0 1-35.356 0 25.003 25.003 0 0 1 0-35.356A25 25 0 0 1 100 75Zm0 66.667c4.167 0 8.083-.584 11.833-1.75-2.25 5.916-3.5 11.916-3.5 18.416v3.75L100 162.5c-41.667 0-77.25-25.917-91.667-62.5 14.417-36.583 50-62.5 91.667-62.5s77.25 25.917 91.667 62.5A98.478 98.478 0 0 1 184 115.417a49.864 49.864 0 0 0-25.667-7.084c-6.5 0-12.5 1.25-18.416 3.5 1.166-3.75 1.75-7.666 1.75-11.833A41.667 41.667 0 1 0 100 141.667Z" />
</svg>