<svg width="40" height="40" viewBox="0 0 40 40" fill="none" xmlns="http://www.w3.org/2000/svg">
<rect x="0.5" y="0.5" width="39" height="39" rx="10.5" fill="#0038FF"/>
<rect x="0.5" y="0.5" width="39" height="39" rx="10.5" stroke="#0038FF"/>
<path d="M24.5715 12.0003C27.3303 13.574 29.1429 16.5969 29.1429 20.0003C29.1429 21.8086 28.6067 23.5762 27.602 25.0798C26.5974 26.5833 25.1695 27.7552 23.4989 28.4472C21.8282 29.1392 19.9899 29.3202 18.2164 28.9675C16.4428 28.6147 14.8137 27.7439 13.5351 26.4653C12.2564 25.1866 11.3856 23.5575 11.0329 21.784C10.6801 20.0104 10.8611 18.1721 11.5531 16.5015C12.2451 14.8308 13.417 13.4029 14.9205 12.3983C16.4241 11.3936 18.1918 10.8574 20 10.8574" stroke="#F6F6F6" stroke-width="1.14286" stroke-linecap="round" stroke-linejoin="round"/>
<path d="M24.5715 16.5714V12H29.143" stroke="#F6F6F6" stroke-width="1.14286" stroke-linecap="round" stroke-linejoin="round"/>
</svg>
