<svg width="18" height="18" viewBox="0 0 18 18" fill="none" xmlns="http://www.w3.org/2000/svg">
<path d="M12.6877 1.46533C10.6811 1.46533 8.74583 2.84567 8.74583 5.78394V7.93262H2.77641C1.70905 7.93262 1.18994 8.45931 1.18994 9.60469V14.8625C1.18994 16.0152 1.70905 16.5346 2.77641 16.5346H9.6781C10.7452 16.5346 11.2646 16.0155 11.2646 14.8629V9.60499C11.2646 8.53764 10.8162 8.01124 9.89151 7.94689V5.63458C9.89151 3.61401 11.2005 2.55394 12.6874 2.55394C14.1816 2.55394 15.4909 3.61401 15.4909 5.63458V7.27083C15.4909 7.77628 15.7398 7.98969 16.0671 7.98969C16.3804 7.98969 16.6363 7.79753 16.6363 7.29239V5.78394C16.6363 2.84537 14.694 1.46533 12.6877 1.46533ZM9.62832 9.00696C9.96255 9.00696 10.1192 9.14964 10.1192 9.54064V14.9196C10.1192 15.3182 9.96255 15.4676 9.62832 15.4676H2.82589C2.49864 15.4676 2.33501 15.3182 2.33501 14.9196V9.54064C2.33501 9.14933 2.49894 9.00696 2.82589 9.00696H9.62832Z" fill="#0038FF"/>
</svg>
