<svg width="145" height="146" viewBox="0 0 145 146" fill="none" xmlns="http://www.w3.org/2000/svg">
<path d="M70.76 0C111.773 0 145 32.6821 145 73C145 113.318 111.766 146 70.76 146C47.6253 146 26.2305 135.51 12.2525 117.924C11.8607 117.433 11.5709 116.868 11.4003 116.261C11.2298 115.655 11.182 115.021 11.2598 114.396C11.3375 113.771 11.5393 113.168 11.8531 112.623C12.1668 112.077 12.5862 111.601 13.0862 111.223C14.106 110.442 15.3876 110.091 16.6597 110.245C17.9319 110.399 19.0945 111.045 19.9012 112.048C26.0161 119.7 33.7639 125.867 42.5697 130.092C51.3754 134.316 61.013 136.49 70.7673 136.452C106.401 136.452 135.292 108.04 135.292 73C135.292 37.96 106.401 9.5484 70.7673 9.5484C61.1524 9.51118 51.6491 11.6233 42.9432 15.7323C34.2372 19.8414 26.5456 25.845 20.4233 33.3099C19.6037 34.303 18.4321 34.9355 17.157 35.0732C15.8819 35.2108 14.6038 34.8428 13.5938 34.0472C13.098 33.662 12.6843 33.1803 12.3773 32.6308C12.0702 32.0813 11.8761 31.4752 11.8064 30.8486C11.7368 30.222 11.793 29.5877 11.9717 28.9834C12.1505 28.3792 12.4482 27.8173 12.847 27.3312C26.8468 10.1762 47.9515 0 70.76 0ZM74.7185 50.0926L94.3442 69.8537C96.2437 71.7663 96.28 74.8177 94.424 76.6865L75.255 95.995C74.804 96.4394 74.2704 96.7899 73.6847 97.0264C73.0991 97.2629 72.4728 97.3808 71.8418 97.3733C71.2109 97.3659 70.5875 97.2332 70.0076 96.9829C69.4276 96.7326 68.9023 96.3696 68.4617 95.9147C68.0104 95.4707 67.6505 94.9414 67.4025 94.3571C67.1546 93.7729 67.0235 93.1451 67.0168 92.5098C67.01 91.8745 67.1278 91.244 67.3633 90.6546C67.5988 90.0651 67.9474 89.5282 68.3892 89.0746L79.605 77.7742L4.8575 77.7815C4.22661 77.7892 3.60039 77.6716 3.01468 77.4354C2.42898 77.1992 1.89528 76.849 1.44411 76.4049C0.992947 75.9608 0.633174 75.4315 0.385378 74.8472C0.137582 74.263 0.00662509 73.6353 0 73C0 70.3647 2.175 68.2258 4.8575 68.2258H79.3005L68.005 56.8451C67.5537 56.4011 67.1937 55.8718 66.9458 55.2875C66.6979 54.7033 66.5668 54.0755 66.56 53.4402C66.5533 52.8049 66.671 52.1744 66.9066 51.585C67.1421 50.9955 67.4907 50.4586 67.9325 50.005C68.8427 49.112 70.0676 48.6189 71.3384 48.634C72.6091 48.649 73.8221 49.171 74.7113 50.0853" fill="#0038FF"/>
</svg>
