<svg width="248" height="213" viewBox="0 0 248 213" fill="none" xmlns="http://www.w3.org/2000/svg">
<path d="M24.9131 192.833C18.3131 192.833 12.6651 190.477 7.96909 185.765C3.27309 181.053 0.921086 175.381 0.913086 168.75V24.25C0.913086 17.627 3.26509 11.9594 7.96909 7.24712C12.6731 2.53482 18.3211 0.174654 24.9131 0.166626H216.913C223.513 0.166626 229.165 2.52679 233.869 7.24712C238.573 11.9675 240.921 17.6351 240.913 24.25V66.6968C240.913 69.9079 240.313 72.9705 239.113 75.8846C237.913 78.7987 236.213 81.3556 234.013 83.5552L168.613 149.182L151.213 131.722C146.613 127.106 140.913 124.798 134.113 124.798C127.313 124.798 121.613 127.106 117.013 131.722L100.513 148.279C95.7131 153.096 93.7611 159.016 94.6571 166.041C95.5531 173.065 98.3051 179.286 102.913 184.705C104.313 186.311 104.613 188.069 103.813 189.979C103.013 191.89 101.513 192.841 99.3131 192.833H24.9131ZM120.913 84.4583L40.5131 33.8833C37.1131 31.6757 33.6651 31.5753 30.1691 33.5822C26.6731 35.5892 24.9211 38.5996 24.9131 42.6135C24.9131 44.4198 25.3131 46.0775 26.1131 47.5867C26.9131 49.0959 28.1131 50.3483 29.7131 51.3437L114.613 104.628C116.613 105.832 118.713 106.434 120.913 106.434C123.113 106.434 125.213 105.832 127.213 104.628L212.113 51.3437C213.713 50.3402 214.913 49.0879 215.713 47.5867C216.513 46.0855 216.913 44.4278 216.913 42.6135C216.913 38.5996 215.165 35.5892 211.669 33.5822C208.173 31.5753 204.721 31.6757 201.313 33.8833L120.913 84.4583ZM168.313 183.2L227.713 123.594C229.913 121.386 232.713 120.282 236.113 120.282C239.513 120.282 242.313 121.386 244.513 123.594C246.713 125.801 247.813 128.611 247.813 132.023C247.813 135.435 246.713 138.244 244.513 140.452L176.713 208.487C175.513 209.692 174.213 210.595 172.813 211.197C171.413 211.799 169.913 212.1 168.313 212.1C166.713 212.1 165.213 211.799 163.813 211.197C162.413 210.595 161.113 209.692 159.913 208.487L125.713 174.169C123.513 171.961 122.413 169.151 122.413 165.74C122.413 162.328 123.513 159.518 125.713 157.31C127.913 155.103 130.713 153.999 134.113 153.999C137.513 153.999 140.313 155.103 142.513 157.31L168.313 183.2Z" fill="#0038FF"/>
</svg>
