<svg width="21" height="21" viewBox="0 0 21 21" fill="none" xmlns="http://www.w3.org/2000/svg">
<path d="M9.41453 3.75C9.41453 4.74456 9.03306 5.69839 8.35405 6.40165C7.67504 7.10491 6.7541 7.5 5.79384 7.5C4.83357 7.5 3.91263 7.10491 3.23362 6.40165C2.55461 5.69839 2.17315 4.74456 2.17315 3.75C2.17315 2.75544 2.55461 1.80161 3.23362 1.09835C3.91263 0.395088 4.83357 0 5.79384 0C6.7541 0 7.67504 0.395088 8.35405 1.09835C9.03306 1.80161 9.41453 2.75544 9.41453 3.75ZM14.4835 6C13.7096 5.9994 12.9397 6.11562 12.1981 6.345C11.8646 5.90184 11.658 5.37059 11.6018 4.81175C11.5456 4.25292 11.642 3.68897 11.8801 3.18412C12.1182 2.67928 12.4884 2.25383 12.9486 1.95624C13.4087 1.65864 13.9403 1.50086 14.4828 1.50086C15.0252 1.50086 15.5568 1.65864 16.017 1.95624C16.4771 2.25383 16.8473 2.67928 17.0854 3.18412C17.3235 3.68897 17.4199 4.25292 17.3637 4.81175C17.3075 5.37059 17.1009 5.90184 16.7674 6.345C16.0263 6.11577 15.2569 5.99955 14.4835 6ZM2.17315 9H8.33846C7.15911 10.4766 6.51516 12.3337 6.51797 14.25C6.51797 14.751 6.56142 15.24 6.64397 15.7155C6.36116 15.7388 6.07755 15.7503 5.79384 15.75C0.000732422 15.75 0.000732422 11.3625 0.000732422 11.3625V11.25C0.000732422 10.6533 0.229611 10.081 0.637018 9.65901C1.04442 9.23705 1.59699 9 2.17315 9ZM21.0007 14.25C21.0007 16.0402 20.3141 17.7571 19.0919 19.023C17.8697 20.2888 16.212 21 14.4835 21C12.755 21 11.0973 20.2888 9.87511 19.023C8.65289 17.7571 7.96625 16.0402 7.96625 14.25C7.96625 12.4598 8.65289 10.7429 9.87511 9.47703C11.0973 8.21116 12.755 7.5 14.4835 7.5C16.212 7.5 17.8697 8.21116 19.0919 9.47703C20.3141 10.7429 21.0007 12.4598 21.0007 14.25ZM15.2076 11.25C15.2076 11.0511 15.1313 10.8603 14.9955 10.7197C14.8597 10.579 14.6755 10.5 14.4835 10.5C14.2914 10.5 14.1072 10.579 13.9714 10.7197C13.8356 10.8603 13.7594 11.0511 13.7594 11.25V13.5H11.5869C11.3949 13.5 11.2107 13.579 11.0749 13.7197C10.9391 13.8603 10.8628 14.0511 10.8628 14.25C10.8628 14.4489 10.9391 14.6397 11.0749 14.7803C11.2107 14.921 11.3949 15 11.5869 15H13.7594V17.25C13.7594 17.4489 13.8356 17.6397 13.9714 17.7803C14.1072 17.921 14.2914 18 14.4835 18C14.6755 18 14.8597 17.921 14.9955 17.7803C15.1313 17.6397 15.2076 17.4489 15.2076 17.25V15H17.38C17.5721 15 17.7563 14.921 17.8921 14.7803C18.0279 14.6397 18.1042 14.4489 18.1042 14.25C18.1042 14.0511 18.0279 13.8603 17.8921 13.7197C17.7563 13.579 17.5721 13.5 17.38 13.5H15.2076V11.25Z" fill="#1C1C1C"/>
</svg>
