<svg width="51" height="51" viewBox="0 0 51 51" fill="none" xmlns="http://www.w3.org/2000/svg">
<rect x="0.5" y="0.5" width="50" height="50" rx="8.5" fill="#E8E8E8"/>
<rect x="0.5" y="0.5" width="50" height="50" rx="8.5" stroke="#E8E8E8"/>
<path d="M25.33 22.5L28.5 25.66V25.5C28.5 24.7044 28.1839 23.9413 27.6213 23.3787C27.0587 22.8161 26.2956 22.5 25.5 22.5H25.33ZM21.03 23.3L22.58 24.85C22.53 25.06 22.5 25.27 22.5 25.5C22.5 26.2956 22.8161 27.0587 23.3787 27.6213C23.9413 28.1839 24.7044 28.5 25.5 28.5C25.72 28.5 25.94 28.47 26.15 28.42L27.7 29.97C27.03 30.3 26.29 30.5 25.5 30.5C24.1739 30.5 22.9021 29.9732 21.9645 29.0355C21.0268 28.0979 20.5 26.8261 20.5 25.5C20.5 24.71 20.7 23.97 21.03 23.3ZM15.5 17.77L17.78 20.05L18.23 20.5C16.58 21.8 15.28 23.5 14.5 25.5C16.23 29.89 20.5 33 25.5 33C27.05 33 28.53 32.7 29.88 32.16L30.31 32.58L33.23 35.5L34.5 34.23L16.77 16.5M25.5 20.5C26.8261 20.5 28.0979 21.0268 29.0355 21.9645C29.9732 22.9021 30.5 24.1739 30.5 25.5C30.5 26.14 30.37 26.76 30.14 27.32L33.07 30.25C34.57 29 35.77 27.36 36.5 25.5C34.77 21.11 30.5 18 25.5 18C24.1 18 22.76 18.25 21.5 18.7L23.67 20.85C24.24 20.63 24.85 20.5 25.5 20.5Z" fill="#F6F6F6"/>
</svg>
