<svg width="40" height="40" viewBox="0 0 40 40" fill="none" xmlns="http://www.w3.org/2000/svg">
<path d="M19.2209 28.0082L28.8353 18.3937C27.2177 17.7184 25.7487 16.7316 24.5117 15.4896C23.2691 14.2524 22.2819 12.7828 21.6063 11.1647L11.9918 20.7791C11.2417 21.5292 10.8661 21.9049 10.5437 22.3183C10.1629 22.8061 9.83644 23.334 9.57 23.8925C9.34511 24.3657 9.17742 24.8701 8.84203 25.8763L7.07149 31.184C6.99 31.427 6.97791 31.6879 7.03658 31.9374C7.09525 32.187 7.22235 32.4152 7.40359 32.5964C7.58484 32.7777 7.81304 32.9048 8.06256 32.9634C8.31207 33.0221 8.57301 33.01 8.81603 32.9285L14.1237 31.158C15.1312 30.8226 15.6343 30.6549 16.1075 30.43C16.6664 30.1635 17.1942 29.8372 17.6817 29.4563C18.0951 29.1339 18.4708 28.7583 19.2209 28.0082ZM31.5028 15.7262C32.4614 14.7676 33 13.4674 33 12.1117C33 10.756 32.4614 9.45581 31.5028 8.49718C30.5442 7.53855 29.244 7 27.8883 7C26.5326 7 25.2324 7.53855 24.2738 8.49718L23.1207 9.65024L23.1701 9.79454C23.7383 11.4204 24.6682 12.8961 25.8896 14.1104C27.1402 15.3683 28.6676 16.3165 30.3498 16.8793L31.5028 15.7262Z" fill="#0038FF"/>
</svg>
