<svg width="21" height="19" viewBox="0 0 21 19" fill="none" xmlns="http://www.w3.org/2000/svg">
<path d="M6.30063 8.97059C7.41465 8.97059 8.48304 8.52437 9.27078 7.7301C10.0585 6.93583 10.5011 5.85856 10.5011 4.73529C10.5011 3.61202 10.0585 2.53476 9.27078 1.74049C8.48304 0.946217 7.41465 0.5 6.30063 0.5C5.18661 0.5 4.11822 0.946217 3.33048 1.74049C2.54275 2.53476 2.10021 3.61202 2.10021 4.73529C2.10021 5.85856 2.54275 6.93583 3.33048 7.7301C4.11822 8.52437 5.18661 8.97059 6.30063 8.97059ZM15.7516 8.97059C16.5871 8.97059 17.3884 8.63593 17.9792 8.04022C18.57 7.44452 18.9019 6.63657 18.9019 5.79412C18.9019 4.95167 18.57 4.14372 17.9792 3.54801C17.3884 2.95231 16.5871 2.61765 15.7516 2.61765C14.9161 2.61765 14.1148 2.95231 13.524 3.54801C12.9332 4.14372 12.6013 4.95167 12.6013 5.79412C12.6013 6.63657 12.9332 7.44452 13.524 8.04022C14.1148 8.63593 14.9161 8.97059 15.7516 8.97059ZM2.62526 11.0882C1.17612 11.0882 0 12.2741 0 13.7353C0 13.7353 0 18.5 6.30063 18.5C11.2949 18.5 12.3303 15.5056 12.5446 14.2647C12.6013 13.9407 12.6013 13.7353 12.6013 13.7353C12.6013 12.2741 11.4251 11.0882 9.976 11.0882H2.62526ZM14.6931 14.4765C14.6689 14.8604 14.6055 15.2407 14.5041 15.6115C14.3717 16.0838 14.1533 16.6492 13.7858 17.2315C14.4302 17.3771 15.0891 17.4475 15.7495 17.4412C21 17.4412 21 13.7353 21 13.7353C21 12.2741 19.8239 11.0882 18.3747 11.0882H13.9034C14.4074 11.8464 14.6994 12.7548 14.6994 13.7353V14.2647L14.6931 14.4765Z" fill="#1C1C1C"/>
</svg>
