<svg width="49" height="49" viewBox="0 0 49 49" fill="none" xmlns="http://www.w3.org/2000/svg">
<path d="M39.5 27H27V39.5C27 40.163 26.7366 40.7989 26.2678 41.2678C25.7989 41.7366 25.163 42 24.5 42C23.837 42 23.2011 41.7366 22.7322 41.2678C22.2634 40.7989 22 40.163 22 39.5V27H9.5C8.83696 27 8.20107 26.7366 7.73223 26.2678C7.26339 25.7989 7 25.163 7 24.5C7 23.837 7.26339 23.2011 7.73223 22.7322C8.20107 22.2634 8.83696 22 9.5 22H22V9.5C22 8.83696 22.2634 8.20107 22.7322 7.73223C23.2011 7.26339 23.837 7 24.5 7C25.163 7 25.7989 7.26339 26.2678 7.73223C26.7366 8.20107 27 8.83696 27 9.5V22H39.5C40.163 22 40.7989 22.2634 41.2678 22.7322C41.7366 23.2011 42 23.837 42 24.5C42 25.163 41.7366 25.7989 41.2678 26.2678C40.7989 26.7366 40.163 27 39.5 27Z" fill="#0038FF"/>
</svg>
