<svg width="25" height="24" viewBox="0 0 25 24" fill="none" xmlns="http://www.w3.org/2000/svg">
<rect x="0.913574" y="0.5" width="23" height="23" rx="11.5" fill="white"/>
<rect x="0.913574" y="0.5" width="23" height="23" rx="11.5" stroke="#464646"/>
<path d="M11.2104 14.3281V13.9219C11.2104 13.5052 11.2495 13.1484 11.3276 12.8516C11.4058 12.5495 11.5412 12.2682 11.7339 12.0078C11.9318 11.7474 12.2052 11.4714 12.5542 11.1797C12.9604 10.8411 13.2808 10.5547 13.5151 10.3203C13.7547 10.0807 13.9266 9.84115 14.0308 9.60156C14.1349 9.36198 14.187 9.07292 14.187 8.73438C14.187 8.19271 14.0125 7.77865 13.6636 7.49219C13.3146 7.20052 12.8224 7.05469 12.187 7.05469C11.6714 7.05469 11.2131 7.11979 10.812 7.25C10.411 7.38021 10.0256 7.53646 9.65576 7.71875L9.20264 6.67188C9.62972 6.44792 10.0933 6.26562 10.5933 6.125C11.0933 5.98438 11.6506 5.91406 12.2651 5.91406C13.2703 5.91406 14.049 6.16406 14.6011 6.66406C15.1532 7.15885 15.4292 7.84115 15.4292 8.71094C15.4292 9.19531 15.3511 9.60938 15.1948 9.95312C15.0386 10.2917 14.8172 10.6042 14.5308 10.8906C14.2443 11.1719 13.9058 11.4714 13.5151 11.7891C13.1714 12.0807 12.9084 12.3385 12.7261 12.5625C12.5438 12.7812 12.4188 13.0078 12.3511 13.2422C12.2834 13.4714 12.2495 13.7474 12.2495 14.0703V14.3281H11.2104ZM10.8667 16.6875C10.8667 16.3229 10.9526 16.0651 11.1245 15.9141C11.2964 15.7578 11.5177 15.6797 11.7886 15.6797C12.0438 15.6797 12.2599 15.7578 12.437 15.9141C12.6193 16.0651 12.7104 16.3229 12.7104 16.6875C12.7104 17.0469 12.6193 17.3099 12.437 17.4766C12.2599 17.638 12.0438 17.7188 11.7886 17.7188C11.5177 17.7188 11.2964 17.638 11.1245 17.4766C10.9526 17.3099 10.8667 17.0469 10.8667 16.6875Z" fill="#464646"/>
</svg>
